<svg version="1.1" xmlns="http://www.w3.org/2000/svg" xmlns:xlink="http://www.w3.org/1999/xlink" width="159.21265" height="117.39427" viewBox="0,0,159.21265,117.39427"><g transform="translate(-240.54844,-121.37345)"><g data-paper-data="{&quot;isPaintingLayer&quot;:true}" fill-rule="nonzero" stroke-linejoin="miter" stroke-miterlimit="10" stroke-dasharray="" stroke-dashoffset="0" style="mix-blend-mode: normal"><path d="M242.40446,162.29103c0,-5.11076 -1.05941,-12.24647 2.30209,-19.63638c5.41625,-11.90708 18.31948,-23.277 35.7189,-18.9279c19.03226,4.75723 27.9592,13.40349 31.92996,21.82333c1.42792,3.02784 4.36433,6.09825 5.07358,8.64493c0.98492,3.53654 0.51329,8.84153 2.88377,6.81309c5.1004,-4.36444 3.43105,-12.83431 10.837,-21.80751c3.9869,-4.83061 10.60388,-10.69482 22.32299,-14.14064c3.92052,-1.15276 9.39834,-1.18847 14.52283,-2.07468c7.35545,-1.27203 19.14171,4.75109 25.1464,14.39078c5.23359,8.40179 5.20356,19.91169 5.20356,27.10426c0,13.35957 -11.49246,36.19858 -28.03708,51.63483c-14.36557,13.40317 -33.07884,20.45558 -44.67884,20.45558c-11.62426,0 -36.8903,-4.12953 -53.88634,-18.08159c-19.49783,-16.00578 -29.33881,-42.86278 -29.33881,-56.19811z" fill="#ff9ae2" stroke="#ff9ae2" stroke-width="1" stroke-linecap="butt"/><path d="M283.0377,173.80821c0,-11.91841 3.50065,-21.58021 7.8189,-21.58021c4.31826,0 7.81892,9.6618 7.81892,21.58021c0,11.91841 -3.50065,21.58021 -7.81892,21.58021c-4.31826,0 -7.8189,-9.6618 -7.8189,-21.58021z" fill="#000000" stroke="none" stroke-width="0" stroke-linecap="butt"/><path d="M286.68678,230.35471c0,0 2.6216,-11.10098 2.6216,-18.72569c0,-6.38609 -3.37062,-22.09632 -3.37062,-22.09632h10.48639c0,0 -2.24708,10.44109 -2.24708,16.47861c0,7.75806 2.24708,26.21597 2.24708,26.21597z" fill="#006bff" stroke="none" stroke-width="0" stroke-linecap="butt"/><path d="M339.3339,173.80821c0,-11.91841 3.50065,-21.58021 7.8189,-21.58021c4.31826,0 7.81892,9.6618 7.81892,21.58021c0,11.91841 -3.50065,21.58021 -7.81892,21.58021c-4.31826,0 -7.8189,-9.6618 -7.8189,-21.58021z" fill="#000000" stroke="none" stroke-width="0" stroke-linecap="butt"/><path d="M311.69372,208.53443c-5.3953,-4.58743 -6.05019,-12.68004 -1.46276,-18.07532c4.58743,-5.3953 12.68004,-6.05019 18.07532,-1.46276c5.3953,4.58743 6.05019,12.68004 1.46276,18.07532c-4.58743,5.3953 -12.68004,6.05019 -18.07532,1.46276z" fill="#ff9ae2" stroke="#b96fa4" stroke-width="2" stroke-linecap="butt"/><path d="M315.89736,203.43391v-7.92316" fill="none" stroke="#b96fa4" stroke-width="2" stroke-linecap="round"/><path d="M323.82052,203.43394v-7.92316" fill="none" stroke="#b96fa4" stroke-width="2" stroke-linecap="round"/><path d="M296.75176,224.20294c0,0 15.0727,-3.75308 22.69016,-3.75308c7.87293,0 23.80631,3.75308 23.80631,3.75308" data-paper-data="{&quot;index&quot;:null}" fill="none" stroke="#b96fa4" stroke-width="2" stroke-linecap="round"/><path d="M342.11483,232.22728c0,0 2.24709,-18.4579 2.24709,-26.21597c0,-6.03752 -2.24709,-16.47861 -2.24709,-16.47861h10.48639c0,0 -3.37063,15.71023 -3.37063,22.09632c0,7.62471 2.6216,18.7257 2.6216,18.7257z" data-paper-data="{&quot;index&quot;:null}" fill="#006bff" stroke="none" stroke-width="0" stroke-linecap="butt"/><g fill="none" stroke="#b96fa4" stroke-width="3" stroke-linecap="butt"><path d="M323.0533,237.26772c-44.73774,0 -81.00486,-36.40474 -81.00486,-81.1425c0,-44.73774 67.23468,-45.76775 77.35964,5.67032"/><path d="M320.90145,161.79556c10.12498,-51.43808 77.35964,-50.40808 77.35964,-5.67034c0,44.73774 -36.26712,81.1425 -81.00486,81.1425" data-paper-data="{&quot;index&quot;:null}"/></g><g fill="#ffffff" stroke="none" stroke-linecap="butt"><path d="M281.08436,163.95386c0,0 1.87986,-1.34722 3.34715,-3.55291c1.28192,-1.92703 2.0273,-5.83914 2.0273,-5.83914v9.3862z" stroke-width="NaN"/><path d="M286.38781,163.94801v-9.3862c0,0 0.74538,3.91211 2.0273,5.83914c1.46729,2.20569 3.34715,3.55291 3.34715,3.55291z" data-paper-data="{&quot;index&quot;:null}" stroke-width="NaN"/><path d="M286.45881,163.93297v9.3862c0,0 -0.74538,-3.91211 -2.0273,-5.83914c-1.46729,-2.20569 -3.34715,-3.55291 -3.34715,-3.55291z" data-paper-data="{&quot;index&quot;:null}" stroke-width="NaN"/><path d="M291.76226,163.92712c0,0 -1.87986,1.34722 -3.34715,3.55291c-1.28192,1.92703 -2.0273,5.83914 -2.0273,5.83914v-9.3862z" data-paper-data="{&quot;index&quot;:null}" stroke-width="NaN"/></g><g fill="#ffffff" stroke="none" stroke-linecap="butt"><path d="M291.36245,182.04377c0,0 1.34336,-0.96274 2.3919,-2.53894c0.91607,-1.37707 1.44872,-4.17271 1.44872,-4.17271v6.70747z" stroke-width="NaN"/><path d="M295.15235,182.03958v-6.70747c0,0 0.53266,2.79563 1.44872,4.17271c1.04854,1.57621 2.39191,2.53894 2.39191,2.53894z" data-paper-data="{&quot;index&quot;:null}" stroke-width="NaN"/><path d="M295.20308,182.02883v6.70747c0,0 -0.53266,-2.79563 -1.44872,-4.17271c-1.04854,-1.57621 -2.39191,-2.53894 -2.39191,-2.53894z" data-paper-data="{&quot;index&quot;:null}" stroke-width="NaN"/><path d="M298.99298,182.02466c0,0 -1.34337,0.96273 -2.39191,2.53894c-0.91607,1.37707 -1.44872,4.17271 -1.44872,4.17271v-6.70747z" data-paper-data="{&quot;index&quot;:null}" stroke-width="NaN"/></g><g fill="#ffffff" stroke="none" stroke-linecap="butt"><path d="M338.25624,163.95386c0,0 1.87986,-1.34722 3.34715,-3.55291c1.28192,-1.92703 2.02729,-5.83914 2.02729,-5.83914v9.3862z" stroke-width="NaN"/><path d="M343.55969,163.94801v-9.3862c0,0 0.74538,3.91211 2.0273,5.83914c1.46729,2.20569 3.34715,3.55291 3.34715,3.55291z" data-paper-data="{&quot;index&quot;:null}" stroke-width="NaN"/><path d="M343.63068,163.93297v9.38621c0,0 -0.74538,-3.91211 -2.02729,-5.83915c-1.46729,-2.20569 -3.34715,-3.55291 -3.34715,-3.55291z" data-paper-data="{&quot;index&quot;:null}" stroke-width="NaN"/><path d="M348.93414,163.92712c0,0 -1.87986,1.34722 -3.34715,3.55291c-1.28192,1.92703 -2.0273,5.83914 -2.0273,5.83914v-9.3862z" data-paper-data="{&quot;index&quot;:null}" stroke-width="NaN"/></g><g fill="#ffffff" stroke="none" stroke-linecap="butt"><path d="M348.53433,182.04377c0,0 1.34336,-0.96274 2.3919,-2.53895c0.91607,-1.37707 1.44873,-4.17271 1.44873,-4.17271v6.70747z" stroke-width="NaN"/><path d="M352.32423,182.03959v-6.70747c0,0 0.53265,2.79563 1.44872,4.17271c1.04854,1.5762 2.39191,2.53895 2.39191,2.53895z" data-paper-data="{&quot;index&quot;:null}" stroke-width="NaN"/><path d="M352.37496,182.02884v6.70747c0,0 -0.53266,-2.79564 -1.44873,-4.17271c-1.04854,-1.5762 -2.3919,-2.53894 -2.3919,-2.53894z" data-paper-data="{&quot;index&quot;:null}" stroke-width="NaN"/><path d="M356.16486,182.02466c0,0 -1.34337,0.96274 -2.39191,2.53895c-0.91607,1.37707 -1.44872,4.1727 -1.44872,4.1727v-6.70747z" data-paper-data="{&quot;index&quot;:null}" stroke-width="NaN"/></g></g></g></svg>