<svg version="1.1" xmlns="http://www.w3.org/2000/svg" xmlns:xlink="http://www.w3.org/1999/xlink" width="64.55539" height="113.40144" viewBox="0,0,64.55539,113.40144"><g transform="translate(-287.7223,-123.29929)"><g data-paper-data="{&quot;isPaintingLayer&quot;:true}" fill="#ffffff" fill-rule="nonzero" stroke="none" stroke-linecap="butt" stroke-linejoin="miter" stroke-miterlimit="10" stroke-dasharray="" stroke-dashoffset="0" style="mix-blend-mode: normal"><g><path d="M287.72231,180.08085c0,0 11.36506,-8.14488 20.23585,-21.47984c7.75008,-11.65024 12.25644,-35.30172 12.25644,-35.30172v56.74619z" stroke-width="NaN"/><path d="M319.7854,180.04549v-56.74619c0,0 4.50637,23.65148 12.25644,35.30172c8.8708,13.33496 20.23585,21.47984 20.23585,21.47984z" data-paper-data="{&quot;index&quot;:null}" stroke-width="NaN"/><path d="M320.2146,179.95453v56.74619c0,0 -4.50636,-23.65148 -12.25644,-35.30172c-8.87079,-13.33496 -20.23586,-21.47984 -20.23586,-21.47984z" data-paper-data="{&quot;index&quot;:null}" stroke-width="NaN"/><path d="M352.27769,179.91917c0,0 -11.36506,8.14487 -20.23585,21.47984c-7.75008,11.65024 -12.25644,35.30172 -12.25644,35.30172v-56.74619z" data-paper-data="{&quot;index&quot;:null}" stroke-width="NaN"/></g></g></g></svg>